<svg xmlns="http://www.w3.org/2000/svg" width="318.871" height="106.307"><g fill="#fff"><path d="M9.955 88.973a16.6 16.6 0 012.831.237 8.792 8.792 0 012.417.763 4.667 4.667 0 011.685 1.37 3.344 3.344 0 01.638 2.082 2.912 2.912 0 01-.922 2.306 6.546 6.546 0 01-2.19 1.26v.062a6.287 6.287 0 012.53 1.417 3.641 3.641 0 011.033 2.783 3.83 3.83 0 01-.414 1.767 4.063 4.063 0 01-1.224 1.415 6.1 6.1 0 01-1.989.938 9.764 9.764 0 01-2.672.333H0v-.57q.89 0 .891-.572V90.117c0-.383-.3-.572-.891-.572v-.572zm.636 6.552a6.557 6.557 0 002.37-.366 1.737 1.737 0 000-3.084 6.6 6.6 0 00-2.37-.368H4.514v3.818zm0 7.252a5.1 5.1 0 002.88-.621 1.971 1.971 0 000-3.275 5.1 5.1 0 00-2.88-.623H4.514v4.518zm27.356-11.07a8.717 8.717 0 014.421.94 3.406 3.406 0 011.592 3.2 3.509 3.509 0 01-.319 1.527 3.838 3.838 0 01-.843 1.162 4.492 4.492 0 01-1.162.794 6.462 6.462 0 01-1.3.461l3.117 4.548a1.862 1.862 0 00.557.527 2.894 2.894 0 00.652.27v.57h-4.869v-.57c.276 0 .415-.1.415-.288a2.106 2.106 0 00-.477-.987l-2.514-3.752h-4.424v4.548a.381.381 0 00.208.366.812.812 0 00.4.113v.57h-4.23v-.57c.379 0 .572-.159.572-.479v-11.9c0-.319-.193-.477-.572-.477v-.574zm-.064 6.046Q41 97.753 41 95.78a1.417 1.417 0 00-.747-1.257 4.663 4.663 0 00-2.37-.461h-5.026v3.691zm15.075 7.378a.956.956 0 00.619-.368 3.218 3.218 0 00.366-.555l4.74-10.338c.126-.3.228-.535.3-.716a1.38 1.38 0 00.113-.523c0-.128-.029-.208-.08-.239s-.113-.068-.175-.111v-.574h4.8v.574a.748.748 0 01-.208.1c-.074.021-.109.107-.109.255a1.018 1.018 0 00.142.459c.1.181.195.387.3.621l5.155 10.815a1.171 1.171 0 00.348.415 1.513 1.513 0 00.414.191v.57h-4.516v-.487a.709.709 0 00.333-.093.367.367 0 00.177-.35.928.928 0 00-.066-.35l-.16-.414-.858-1.812h-6.807l-.881 1.719a4.949 4.949 0 00-.208.463 1.037 1.037 0 00-.08.364c0 .171.054.276.16.317a1.182 1.182 0 00.446.066v.57h-4.265zm10.623-5.281l-2.576-5.343-2.259 5.343zm15.524 5.281q.572 0 .572-.479v-11.9c0-.319-.191-.477-.572-.477v-.574h4.674v.574q-.222.032-.222.158 0 .16.7.858l7.634 8.081v-8.62c0-.319-.212-.477-.636-.477v-.574h3.88v.574c-.381 0-.572.158-.572.477v11.9q0 .479.572.479v.57H91v-.57c.15 0 .224-.054.224-.159 0-.084-.1-.234-.3-.446s-.428-.455-.683-.732l-7.889-8.4v9.255c0 .319.222.479.669.479v.57h-3.913zm27.13 0q.733 0 .732-.479v-11.9c0-.319-.243-.477-.732-.477v-.574h8.844a7.752 7.752 0 013.213.605 6.044 6.044 0 013.421 3.8 8.6 8.6 0 01.4 2.592 8.863 8.863 0 01-.383 2.592 5.978 5.978 0 01-3.337 3.8 7.552 7.552 0 01-3.181.6h-8.972zm7.922-1.78a11.852 11.852 0 001.878-.146 3.511 3.511 0 001.557-.634 3.341 3.341 0 001.066-1.432 6.607 6.607 0 00.4-2.528 6.361 6.361 0 00-.4-2.5 3.13 3.13 0 00-1.066-1.368 3.419 3.419 0 00-1.557-.572 15.218 15.218 0 00-1.878-.113h-4.135v9.29zm34.702 1.78q.6 0 .6-.572V90.117c0-.383-.2-.572-.6-.572v-.572h5.441v.572c-.171 0-.255.105-.255.317 0 .171.21.467.634.891l9.128 9.478V90.117c0-.383-.274-.572-.825-.572v-.572h4.8v.572c-.4 0-.6.189-.6.572v14.442c0 .381.2.572.6.572v.57h-5.153v-.57c.274 0 .415-.1.415-.288 0-.148-.171-.391-.51-.732l-9.7-10.115v10.562q0 .572.732.572v.57h-4.709zm43.096-10.464q0-.6-.987-.605h-7.76v3.18h4.9a2.926 2.926 0 00.8-.08c.169-.055.255-.2.255-.43h.572v3.372h-.638a.3.3 0 00-.253-.43 4.753 4.753 0 00-.987-.08h-4.643v3.756h8.141a1.108 1.108 0 00.634-.175.539.539 0 00.255-.463h.574v3.339h-.574a.276.276 0 00-.255-.317 5.172 5.172 0 00-.634-.033h-11.674v-.57a.55.55 0 00.317-.113.418.418 0 00.16-.366v-11.9a.415.415 0 00-.16-.366.56.56 0 00-.317-.111v-.574h11.29q.987 0 .987-.572h.572v3.532zm13.712-2.386c-.278 0-.414.148-.414.446a1.555 1.555 0 00.128.49l.317.845 2.8 7.729h.064l2.7-7.569c.1-.3.2-.578.3-.843a2.038 2.038 0 00.144-.652c0-.3-.171-.446-.51-.446v-.574h4.549v.574c-.383 0-.574.126-.574.379a2.055 2.055 0 00.16.654c.107.286.212.556.319.809l2.8 7.667 2.958-7.729c.107-.3.195-.557.27-.778a1.845 1.845 0 00.111-.556c0-.3-.169-.446-.51-.446v-.574h4.044v.574c-.362 0-.679.391-.956 1.177l-3.656 9.7c-.129.36-.255.683-.383.971a1.821 1.821 0 00-.189.588q0 .415.444.414v.57h-4.452v-.57a.511.511 0 00.317-.113.575.575 0 00.062-.333 5.952 5.952 0 00-.284-.955q-.289-.826-.749-2.082t-1-2.816q-.54-1.559-1.049-3.148h-.064a8.351 8.351 0 01-.35 1.033q-.283.747-.665 1.716t-.811 2.037l-.8 1.973q-.368.908-.605 1.526a4.132 4.132 0 00-.237.716.5.5 0 00.1.35.557.557 0 00.381.1v.57h-3.913v-.57a.7.7 0 00.224-.033c.064-.021.093-.1.093-.222a1.482 1.482 0 00-.109-.492c-.074-.2-.134-.356-.175-.463l-4.2-11.035a.874.874 0 00-.667-.605v-.574h4.04zm61.068.126a.585.585 0 00-.271-.525 1.824 1.824 0 00-.938-.175h-10.303v3.944h6.235a2.282 2.282 0 00.987-.173q.347-.175.348-.907h.572v4.962h-.572q0-.733-.348-.94a1.971 1.971 0 00-.987-.206h-6.235v4.39h10.625a1.269 1.269 0 00.778-.224.7.7 0 00.3-.6h.572v4.357h-.572c0-.317-.1-.5-.3-.539a3.7 3.7 0 00-.778-.066h-14.822v-.57a.619.619 0 00.4-.144.528.528 0 00.175-.428V90.119a.532.532 0 00-.175-.43.617.617 0 00-.4-.142v-.572h14.5a1.574 1.574 0 00.938-.208.66.66 0 00.271-.556h.574v4.2zm20.389-.7a8.72 8.72 0 014.423.94 3.4 3.4 0 011.59 3.2 3.508 3.508 0 01-.317 1.527 3.87 3.87 0 01-.843 1.162 4.491 4.491 0 01-1.162.794 6.505 6.505 0 01-1.3.461l3.117 4.548a1.839 1.839 0 00.556.527 2.856 2.856 0 00.652.27v.57h-4.867v-.57c.274 0 .414-.1.414-.288a2.116 2.116 0 00-.479-.987l-2.514-3.752h-4.419v4.548a.383.383 0 00.206.366.824.824 0 00.4.113v.57h-4.228v-.57c.379 0 .572-.159.572-.479v-11.9c0-.319-.193-.477-.572-.477v-.574zm-.062 6.046q3.118 0 3.117-1.973a1.417 1.417 0 00-.747-1.257 4.664 4.664 0 00-2.37-.461h-5.026v3.691zm15.077 7.378a.956.956 0 00.621-.368 3.215 3.215 0 00.366-.555l4.74-10.338c.126-.3.228-.535.3-.716a1.374 1.374 0 00.111-.523c0-.128-.027-.208-.08-.239s-.111-.068-.173-.111v-.574h4.8v.574a.714.714 0 01-.206.1c-.074.021-.111.107-.111.255a1.027 1.027 0 00.144.459c.094.181.195.387.3.621l5.153 10.815a1.192 1.192 0 00.35.415 1.487 1.487 0 00.414.191v.57h-4.516v-.487a.7.7 0 00.331-.093.364.364 0 00.177-.35.929.929 0 00-.064-.35c-.041-.107-.1-.243-.16-.414l-.858-1.812h-6.807l-.89 1.719a4.729 4.729 0 00-.208.463 1.037 1.037 0 00-.08.364c0 .171.052.276.159.317a1.182 1.182 0 00.446.066v.57h-4.263zm10.624-5.281l-2.576-5.343-2.259 5.343zM87.478.001a52.418 52.418 0 019.011.759 27.789 27.789 0 017.7 2.43 15.015 15.015 0 015.369 4.355 10.7 10.7 0 012.026 6.632 9.253 9.253 0 01-2.938 7.342 20.887 20.887 0 01-6.988 4v.2a19.847 19.847 0 018.052 4.509q3.289 3.088 3.29 8.862a12.21 12.21 0 01-1.317 5.618 12.926 12.926 0 01-3.9 4.507 19.247 19.247 0 01-6.328 2.987 31.216 31.216 0 01-8.507 1.064H58.436s.181-2.43.181-3.645V3.643c0-1.214.062-3.645.062-3.645zm2.026 20.858a21.028 21.028 0 007.544-1.162q2.983-1.165 2.987-4.913t-2.987-4.909a20.981 20.981 0 00-7.544-1.166H70.16v12.15zm0 23.09q6.378 0 9.163-1.975a6.276 6.276 0 000-10.43q-2.785-1.973-9.163-1.975H70.16v14.38zm42.122-40.304v-.023 46.022-.023zM177.294.001v35.842L148.231 5.667c-.368-.37-.677-.7-.944-1.01l-4.477-4.66h-11.188V53.26h10.739V16l23.292 24.286 12.516 12.979h9.854V.001zm77.066 29.974h-33.014v.018h33.411c-.135-.006-.257-.018-.397-.018zm-33.014-8.71z"/><path d="M209.801 0v53.264h50.632v-9.317h-39.088V29.974l39.088.017v-8.727h-39.088V8.709h39.088V0z"/></g></svg>