<svg id="레이어_1" data-name="레이어 1" xmlns="http://www.w3.org/2000/svg" viewBox="0 0 342.94 90.43"><defs><style>.cls-2{fill:none}</style></defs><path d="M49.3 0a88.81 88.81 0 0115.3 1.29 47 47 0 0113.07 4.13 25.37 25.37 0 019.11 7.39 18.17 18.17 0 013.44 11.26q0 8.09-5 12.46a35.19 35.19 0 01-11.86 6.79v.35A33.58 33.58 0 0187 51.32q5.58 5.25 5.59 15a20.69 20.69 0 01-2.24 9.54 21.88 21.88 0 01-6.62 7.65A32.63 32.63 0 0173 88.62a52.71 52.71 0 01-14.44 1.81H0s.31-4.13.31-6.19v-78C.31 4.13.41 0 .41 0zm3.44 35.41a35.56 35.56 0 0012.81-2q5.07-2 5.07-8.34t-5.07-8.34a35.78 35.78 0 00-12.81-2H19.91v20.68zm0 39.2q10.83 0 15.56-3.35a10.65 10.65 0 000-17.71q-4.72-3.34-15.56-3.35H19.91v24.41z" fill="#231815"/><path class="cls-2" d="M124.26 6.19v78.09z"/><path d="M201.79 0v60.86L152.45 9.63c-.63-.63-1.15-1.19-1.6-1.72L143.24 0h-19v90.39h18.23V27.16L182 68.39l21.24 22H220V0z"/><path class="cls-2" d="M332.62 50.89h-56 56.68c-.23.02-.44 0-.68 0zM276.58 36.1z"/><path d="M256.98 0v90.43h85.96V74.61h-66.36V50.89l66.36.03V36.1h-66.36V14.79h66.36V0h-85.96z"/></svg>