<svg xmlns="http://www.w3.org/2000/svg" width="28.467" height="26.927"><path d="M25.3 7.305a.793.793 0 00-.793.793v14.471a2.777 2.777 0 01-2.774 2.774H4.359a2.777 2.777 0 01-2.774-2.774V5.192a2.777 2.777 0 012.774-2.774h17.377a.793.793 0 100-1.585H4.359A4.364 4.364 0 000 5.192v17.377a4.364 4.364 0 004.359 4.359h17.377a4.363 4.363 0 004.359-4.359V8.098a.792.792 0 00-.795-.793z"/><path d="M28.235.228a.792.792 0 00-1.12 0L11.187 16.155l-3.98-3.98a.792.792 0 00-1.12 1.121l4.541 4.54a.792.792 0 001.121 0L28.232 1.354a.792.792 0 00.003-1.126z"/></svg>