<svg xmlns="http://www.w3.org/2000/svg" width="11.078" height="9.601"><g data-name="Group 539" fill="#363636"><path data-name="Path 2538" d="M10.155 1.108H5.934a.554.554 0 01-.462-.246l-.3-.451A.921.921 0 004.404 0H.923A.924.924 0 000 .923v7.755a.924.924 0 00.923.923h9.232a.924.924 0 00.923-.923V2.031a.924.924 0 00-.923-.923zM.369.923A.554.554 0 01.923.367h3.482a.554.554 0 01.462.246l.3.451a.921.921 0 00.768.411h4.221a.554.554 0 01.554.554v.369l-.023-.014c-.015-.011-.032-.02-.048-.03a.9.9 0 00-.1-.052l-.055-.024a.949.949 0 00-.109-.034c-.017 0-.034-.01-.052-.013a.914.914 0 00-.171-.017H.923a.918.918 0 00-.171.017c-.018 0-.035.009-.052.013a.949.949 0 00-.109.034l-.055.024a.943.943 0 00-.1.052l-.048.03-.023.014zm10.34 7.755a.554.554 0 01-.554.554H.923a.554.554 0 01-.554-.554V3.139a.554.554 0 01.554-.554h9.232a.554.554 0 01.554.554v5.539z"/><path data-name="Path 2539" d="M7.884 5.198a2.4 2.4 0 00-4.685 0 1.662 1.662 0 00.312 3.3h4.062a1.662 1.662 0 00.312-3.3zm-.312 2.926H3.508a1.292 1.292 0 01-.136-2.578l.14-.015.023-.139a2.031 2.031 0 014.008 0l.023.139.14.015a1.292 1.292 0 01-.136 2.578z"/><path data-name="Path 2540" d="M6.192 6.651l-.468.468V5.164a.185.185 0 00-.369 0v1.955l-.468-.468a.185.185 0 00-.266.256l.783.783a.185.185 0 00.261 0l.783-.783a.185.185 0 00-.261-.261z"/></g></svg>